<svg xmlns="http://www.w3.org/2000/svg" width="138" height="37" fill="none"><style><![CDATA[.B{fill-rule:evenodd}.C{fill:#00d3c8}]]></style><path d="M58.866 24.484c0 1.2.77 1.918 1.922 1.918.462 0 1.077-.115 1.7-.23l.54 3.72c-1.23.268-2.422.422-3.42.422-3.46 0-5.65-2.07-5.65-5.33V4.592h4.92v19.892zM73.02 25.8c2.872 0 4.837-2.224 4.837-4.975s-1.965-5.013-4.837-5.013-4.836 2.26-4.836 5.013S70.147 25.8 73.02 25.8zm0-14.5c5.554 0 9.748 4.26 9.748 9.536s-4.194 9.498-9.748 9.498-9.748-4.22-9.748-9.498S67.466 11.3 73.02 11.3zm19.303 11.523l5.025-11.157h5.1l-8.426 18.28h-3.4l-8.426-18.28h5.1l5.025 11.157z" class="B C"/><mask id="A" mask-type="alpha" maskUnits="userSpaceOnUse" x="123" y="11" width="15" height="20"><path d="M123.328 11.28h14.66v19.034h-14.66V11.28z" fill="#fff" class="B"/></mask><g mask="url(#A)" class="B C"><path d="M125.708 24.358c1.246 1.13 3.174 1.81 5.025 1.81 1.322 0 2.343-.64 2.343-1.545 0-2.75-8.88-1.772-8.88-7.65 0-3.505 3.4-5.692 7.03-5.692 2.38 0 4.987.905 6.195 1.847l-2.304 3.543c-.945-.678-2.192-1.244-3.515-1.244-1.36 0-2.493.528-2.493 1.47 0 2.375 8.88 1.433 8.88 7.764 0 3.506-3.44 5.654-7.293 5.654-2.53 0-5.213-.867-7.367-2.45l2.38-3.505z"/></g><mask id="B" mask-type="alpha" maskUnits="userSpaceOnUse" x="0" y="0" width="45" height="37"><path d="M0 .422h44.2v36.38H0V.422z" fill="#fff" class="B"/></mask><g mask="url(#B)" class="B C"><path d="M36.76 19.468L25.323 30.732c-.9.85-2.012 1.295-3.224 1.296a4.62 4.62 0 0 1-3.224-1.296L7.44 19.468C5.552 17.633 4.66 15.09 5 12.503c.16-1.405.765-2.83 1.707-4.023 1.66-2.063 4.116-3.246 6.738-3.246 1.563 0 3.068.414 4.354 1.198l.72.494-.593.6-1.976 1.928c-1.633 1.624-2.532 3.746-2.532 5.973 0 2.264.897 4.384 2.532 5.974 1.61 1.6 3.783 2.48 6.122 2.48l.036-.001.036.001c2.34 0 4.513-.88 6.12-2.48 1.635-1.6 2.533-3.7 2.533-5.974 0-2.227-.9-4.348-2.533-5.973l-1.976-1.928-.593-.6.72-.494c1.286-.784 2.792-1.198 4.354-1.198 2.623 0 5.08 1.183 6.738 3.246.94 1.19 1.545 2.617 1.707 4.023.33 2.588-.56 5.13-2.448 6.965zM22.1 10.297l2.647 2.54c.726.722 1.096 1.647 1.05 2.613.001.946-.372 1.836-1.078 2.538a3.69 3.69 0 0 1-2.618 1.071 3.69 3.69 0 0 1-2.619-1.071c-.706-.702-1.078-1.592-1.077-2.538-.046-.966.324-1.89 1.05-2.613l2.647-2.54zm22 1.613c-.3-2.345-1.224-4.55-2.702-6.38C38.784 2.283 34.91.422 30.764.422c-2.99 0-5.84.958-8.246 2.77l-.42.316-.418-.316C19.276 1.38 16.425.422 13.435.422 9.3.422 5.414 2.283 2.803 5.53 1.326 7.36.39 9.565.1 11.9c-.503 4.077.89 8.068 3.825 10.95l11.48 11.228c1.793 1.75 4.172 2.713 6.695 2.714a9.54 9.54 0 0 0 6.696-2.714L40.273 22.86c2.934-2.883 4.33-6.874 3.826-10.95z"/></g><path d="M118.65 11.656l-4.95 10.968-5.365-10.968h-5.403l8.42 16.423-.324.838c-1.003 2.2-2.105 2.793-3.898 2.793-.53 0-1.222-.123-1.914-.284l-.642 3.762a8.44 8.44 0 0 0 3.046.668c4.14.096 6.578-2.323 8.37-6.835l.393-.87 7.444-16.495h-5.176z" class="B C"/></svg>